<svg fill="#ffffff" height="78px" width="78px" version="1.1" id="Layer_1" xmlns="http://www.w3.org/2000/svg" xmlns:xlink="http://www.w3.org/1999/xlink" viewBox="-85.8 -85.8 501.60 501.60" xml:space="preserve" transform="rotate(270)" stroke="#ffffff" stroke-width="16.5"><g id="SVGRepo_bgCarrier" stroke-width="0" transform="translate(14.849999999999994,14.849999999999994), scale(0.91)"><rect x="-85.8" y="-85.8" width="501.60" height="501.60" rx="250.8" fill="#b37100" strokewidth="0"></rect></g><g id="SVGRepo_tracerCarrier" stroke-linecap="round" stroke-linejoin="round"></g><g id="SVGRepo_iconCarrier"> <path id="XMLID_222_" d="M250.606,154.389l-150-149.996c-5.857-5.858-15.355-5.858-21.213,0.001 c-5.857,5.858-5.857,15.355,0.001,21.213l139.393,139.39L79.393,304.394c-5.857,5.858-5.857,15.355,0.001,21.213 C82.322,328.536,86.161,330,90,330s7.678-1.464,10.607-4.394l149.999-150.004c2.814-2.813,4.394-6.628,4.394-10.606 C255,161.018,253.42,157.202,250.606,154.389z"></path> </g></svg>